
<svg width="100" height="50" viewBox="0 0 100 50" xmlns="http://www.w3.org/2000/svg">
  <defs>
    <linearGradient id="cloudGradient" x1="0%" y1="0%" x2="100%" y2="100%">
      <stop offset="0%" stop-color="#FFDEE2" />
      <stop offset="100%" stop-color="#FFB2C0" />
    </linearGradient>
  </defs>
  <path d="M25,35 C17,35 10,28 10,20 C10,12 17,5 25,5 C28,5 31,6 33,8 C35,3 40,0 45,0 C52,0 58,6 58,13 C58,14 58,15 58,15 C64,15 70,21 70,28 C70,35 64,40 58,40 L25,40 C24,40 24,38 25,38 L58,38 C63,38 68,34 68,28 C68,22 63,17 58,17 C57,17 56,14 57,13 C57,13 57,12 57,11 C57,7 52,2 47,2 C42,2 37,6 37,11 C37,12 36,13 35,13 C34,13 33,12 32,12 C30,10 28,8 24,8 C18,8 13,13 13,20 C13,27 18,32 24,32 C25,32 25,35 25,35 Z" fill="url(#cloudGradient)" />
  <text x="50" y="40" text-anchor="middle" font-family="Quicksand" font-weight="700" font-size="10" fill="#000000">KUMO CLOUD</text>
</svg>
